<svg xmlns="http://www.w3.org/2000/svg" width="512" height="512" viewBox="0 0 512 512"><defs><linearGradient id="a" x1=".5" x2=".5" y2="1" gradientUnits="objectBoundingBox"><stop offset="0" stop-color="#ffb508"/><stop offset="1" stop-color="#fc2a02"/></linearGradient></defs><g transform="translate(-14960 -4001)"><circle cx="256" cy="256" r="256" fill="url(#a)" data-name="Ellipse 22-2" transform="translate(14960 4001)"/><g transform="translate(12886 402.909)"><path fill="#fff" d="M2264.252,3826.919l65.555-65.528,65.582,65.582,38.123-38.15-103.705-103.732-103.7,103.7Z" data-name="Path 323"/><path fill="#fff" d="M2161,3853.872l38.123-38.15,38.15,38.15L2199.123,3892Z" data-name="Path 324"/><path fill="#fff" d="M2264.252,3880.8l65.556,65.556,65.582-65.583,38.15,38.1L2329.834,4022.6,2226.1,3918.948Z" data-name="Path 325"/><path fill="#fff" d="M2422.263,3853.872l38.123-38.15,38.15,38.123-38.15,38.177Z" data-name="Path 326"/><path fill="#fff" d="M2368.491,3853.846l-38.683-38.71-28.606,28.606-3.306,3.279-6.771,6.771,38.683,38.656,38.683-38.576Z" data-name="Path 327"/></g></g></svg>